<?xml version="1.0" encoding="UTF-8"?>
<!-- Generator: Adobe Illustrator 25.0.0, SVG Export Plug-In . SVG Version: 6.00 Build 0)  -->
<svg xmlns="http://www.w3.org/2000/svg" xmlns:xlink="http://www.w3.org/1999/xlink" version="1.1" id="Layer_1" x="0px" y="0px" viewBox="0 0 694 722" style="enable-background:new 0 0 694 722;" xml:space="preserve">
<style type="text/css">
	.st0{fill:#7F7F7F;}
</style>
<path class="st0" d="M693.7,40.2L624.4,0.2L624.2,0l-0.3,0.2l-69.3,40.1l-0.3,0.1v0.3v79.2v0.6l-68.7,39.8l-69-39.9l-0.3,0.4h0  l0.3-0.4l-0.8-0.4v0.9v80.1v0.3l0.3,0.1l68.7,39.5l-68.5,39.6l-69-39.9l-0.3-0.2l-0.3,0.2l-69.3,40.1l-0.3,0.1v0.3v79.2v0.9v0.9  v79.2v0.3l0.3,0.1l68.7,39.5l-68.5,39.6l-69-39.8v0h0l-0.3-0.1l-0.3-0.1l-0.3,0.1l0.1,0.1h0l-0.1-0.1l-0.2,0.1h0v0l-69,39.9l0.3,0.4  h0l-0.3-0.4l-0.3,0.1v0.3v79.5l-68.7,39.8l-69-39.9L0,600.3v0.9v80.1v0.3l0.3,0.1l69,39.9v0h0l0.3,0.1l0.3,0.1l0.3-0.1l0.3-0.1h0v0  l68.7-39.8l68.7,39.8v0h0l0.3,0.1l0.3,0.1l0.3-0.1l0.3-0.1h0v0l69-39.8l68.7,39.8v0h0l0.3,0.1l0.3,0.1l0.3-0.1l0.3-0.1h0v0  l68.7-39.8l68.7,39.8v0h0l0.3,0.1l0.3,0.1l0.3-0.1l0.3-0.1h0v0l68.7-39.8l68.7,39.8v0h0l0.3,0.1l0.3,0.1l0.3-0.1l0.3-0.1h0v0  l69-39.9l0.3-0.1v-0.3v-79.2v0v-0.9v-79.8v-0.3l-0.3-0.1L625,481.2l68.7-39.5l0.3-0.1v-0.3V362v-0.9v-0.9V281v-0.3l-0.3-0.1  L625,240.8l68.7-39.5l0.3-0.1v-0.3v-79.2v-0.9v0v-0.9V40.7v-0.3L693.7,40.2z M692.9,200.6l-68.2,39.2v-78.6l68.2-39.5V200.6z   M692.9,441l-68.2,39.2v-78.6l68.2-39.5V441z M624.2,640.7L556,601.2l68.2-39.2l68.2,39.2L624.2,640.7z M485.7,640.7l-68.2-39.5  l68.2-39.2l68.2,39.2L485.7,640.7z M347.1,640.7l-68.2-39.5l68.2-39.2l68.2,39.2L347.1,640.7z M208.3,640.7l-68.2-39.5l68.2-39.2  l68.5,39.2L208.3,640.7z M278.4,281.3l68.2-39.5v78.9l-68.2,39.5V281.3z M416.9,121.7l68.2,39.5v78.6l-68.2-39.2V121.7z M555.4,41  l68.2-39.5v78.9l-68.2,39.5V41z M347.1,321.7l68.2,39.5l-68.2,39.5l-68.2-39.5L347.1,321.7z M554.9,201.5l68.5,39.3l-68.5,39.6  l-68.5-39.6L554.9,201.5z M623.7,320.8l-68.2,39.5v-78.9l68.2-39.5V320.8z M554.9,520.8l-68.5-39.6l68.5-39.3l68.5,39.3L554.9,520.8  z M416.4,520.8l-68.5-39.6l68.5-39.3l68.5,39.3L416.4,520.8z M347.7,401.5l68.2-39.5v0V441l-68.2,39.2V401.5z M486.2,241.9  l68.2,39.5v78.9v0l-68.2-39.5V241.9z M554.4,362V441l-68.2,39.2v-78.6L554.4,362L554.4,362z M485.1,480.1L416.9,441V362l68.2,39.5  V480.1z M485.7,321.7l68.2,39.5l-68.2,39.5l-68.2-39.5L485.7,321.7z M347.7,482.2l68.2,39.5v78.6v0l-68.2-39.2V482.2z M416.9,521.7  l68.2-39.5v78.9l-68.2,39.2V521.7z M486.2,482.2l68.2,39.5v78.6l-68.2-39.2V482.2z M555.4,521.7l68.2-39.5v78.9l-68.2,39.2V521.7z   M555.4,441V362l68.2,39.5v78.6L555.4,441z M624.2,400.6L556,361.2l68.2-39.5l68.2,39.5L624.2,400.6z M555.4,200.6v-78.9l68.2,39.5  v78.6L555.4,200.6z M624.2,160.8L624.2,160.8L624.2,160.8L624.2,160.8z M624.2,160.2L556,120.8l68.2-39.5l68.2,39.5L624.2,160.2z   M554.4,200.6l-68.2,39.2v-78.6l68.2-39.5V200.6z M485.7,160.8L485.7,160.8L485.7,160.8L485.7,160.8z M485.1,320.8l-68.2,39.5v-78.9  l68.2-39.5V320.8z M415.9,360.3L415.9,360.3l-68.2-39.5v-78.9l68.2,39.5V360.3z M278.4,362l68.2,39.5v78.6L278.4,441V362z   M346.6,561.2l-68.2,39.2v0v-78.6l68.2-39.5V561.2z M692.9,600.3l-68.2-39.2v-78.9l68.2,39.5V600.3z M692.9,360.3l-68.2-39.5v-78.9  l68.2,39.5V360.3z M624.7,80.4V1.5L692.9,41v78.9L624.7,80.4z M277.4,521.7v78.6v0l-68.5-39.2v-78.9L277.4,521.7z M207.8,561.2  l-68.2,39.2v0v-78.6l68.2-39.5V561.2z M1,681v-78.9l68.2,39.5v78.9L1,681z M70.3,641.6l68.2-39.5V681l-68.2,39.5V641.6z M139.6,681  v-78.9l68.2,39.5v78.9L139.6,681z M208.8,641.6l68.5-39.5V681l-68.5,39.5V641.6z M278.4,681v-78.9l68.2,39.5v78.9L278.4,681z   M347.7,641.6l68.2-39.5V681l-68.2,39.5V641.6z M416.9,681v-78.9l68.2,39.5v78.9L416.9,681z M486.2,641.6l68.2-39.5V681l-68.2,39.5  V641.6z M555.4,681v-78.9l68.2,39.5v78.9L555.4,681z M692.9,681l-68.2,39.5v-78.9l68.2-39.5V681z"></path>
</svg>
